<svg width="44" height="54" viewBox="0 0 44 54" fill="none" xmlns="http://www.w3.org/2000/svg">
<path d="M19.0773 0.0661628C8.55753 0.0661628 0 10.4537 0 23.2231C0 35.9926 8.55753 46.3801 19.0773 46.3801C22.2932 46.3801 25.4546 45.4538 28.1254 43.6675C28.3393 43.98 28.5765 44.2679 28.834 44.5276L34.2846 51.1438C34.7879 51.8313 35.4016 52.3866 36.0882 52.7757C36.7747 53.1648 37.5194 53.3795 38.2767 53.4065C39.0341 53.4336 39.788 53.2725 40.4921 52.9331C41.1963 52.5937 41.8359 52.0831 42.3716 51.4328C42.9074 50.7825 43.3279 50.0061 43.6076 49.1514C43.8872 48.2966 44.0199 47.3815 43.9976 46.4623C43.9753 45.543 43.7985 44.6389 43.4779 43.8056C43.1574 42.9723 42.6999 42.2273 42.1336 41.6164L36.6829 35.0001C36.4174 34.6777 36.1251 34.3895 35.8108 34.14C37.2825 30.898 38.2091 27.1268 38.2091 23.157C38.2091 10.3876 29.6516 0 19.1318 0L19.0773 0.0661628ZM19.0773 6.68244C26.6537 6.68244 32.7039 14.0265 32.7039 23.2231C32.7039 27.5899 31.3958 31.6258 29.1065 34.6031C29.052 34.6693 28.9975 34.7355 28.943 34.8016C28.6855 35.0613 28.4483 35.3492 28.2344 35.6618C25.8361 38.3083 22.5657 39.83 19.0228 39.83C11.4464 39.83 5.39615 32.4859 5.39615 23.2893C5.39615 14.0927 11.4464 6.74861 19.0228 6.74861L19.0773 6.68244Z" fill="black"/>
</svg>
